<svg width="1766" height="500" viewBox="0 0 1766 500" fill="none" xmlns="http://www.w3.org/2000/svg">
<path d="M358.741 154.503C371.84 184.487 378.388 216.355 378.388 250.111C378.388 283.914 371.839 315.782 358.74 345.748C345.641 375.732 327.881 402.034 305.508 424.622C283.088 447.229 256.783 465.059 226.532 478.141C196.277 491.238 164.242 497.78 130.424 497.78H24.8478C2.80634 497.78 -8.28085 471.209 7.2377 455.577L40.2517 422.321C44.9083 417.63 51.2481 414.992 57.8619 414.992H130.426C153.278 414.992 174.723 410.708 194.727 402.142C214.732 393.576 232.242 381.684 247.262 366.453C262.266 351.238 274.049 333.625 282.625 313.647C291.203 293.652 295.492 272.499 295.492 250.124C295.492 227.78 291.203 206.595 282.625 186.617C274.048 166.638 262.125 149.027 246.891 133.81C231.64 118.58 214.02 106.689 194.015 98.1217C174.011 89.5395 152.798 85.2721 130.426 85.2721H57.8618C51.248 85.2721 44.9083 82.6336 40.2518 77.943L7.23841 44.6883C-8.28032 29.0562 2.80692 2.48541 24.8485 2.48541H130.424C164.239 2.48541 196.166 9.04144 226.17 22.1065C256.193 35.2038 282.498 53.0471 305.133 75.6384C327.753 98.2456 345.629 124.539 358.741 154.503ZM344.571 339.578C356.741 311.713 362.918 281.624 362.918 250.14C362.918 218.656 356.74 188.55 344.571 160.688C332.309 132.653 315.371 107.727 294.204 86.5758C273.023 65.4528 248.065 48.5362 219.996 36.2898C192.079 24.1201 161.934 17.9495 130.442 17.9495H62.0062C39.9653 17.9495 28.8778 44.5189 44.3951 60.1515L46.7096 62.4831C51.3662 67.1743 57.7063 69.8132 64.3206 69.8132H130.442C154.874 69.8132 178.315 74.5604 200.147 83.916C221.84 93.1938 241.256 106.307 257.853 122.868C274.435 139.429 287.55 158.834 296.87 180.529C306.238 202.363 310.991 225.773 310.991 250.128C310.991 274.483 306.238 297.893 296.87 319.743C287.564 341.408 274.589 360.783 258.301 377.312C241.966 393.888 222.628 407.032 200.842 416.356C178.979 425.712 155.29 430.459 130.44 430.459H64.319C57.7047 430.459 51.3644 433.098 46.7077 437.789L44.392 440.122C28.875 455.755 39.9625 482.324 62.0033 482.324H130.44C161.965 482.324 192.233 476.153 220.384 463.968C248.672 451.737 273.615 434.851 294.521 413.758C315.44 392.635 332.277 367.674 344.571 339.578ZM453.618 24.8157C453.618 2.80211 480.225 -8.27051 495.877 7.22926L528.466 39.5016C533.162 44.152 535.804 50.4832 535.804 57.088V442.356C535.804 448.888 533.22 455.155 528.616 459.793L496.026 492.621C480.435 508.326 453.618 497.3 453.618 475.184V24.8157ZM513.114 453.425C517.719 448.787 520.302 442.52 520.302 435.988V63.5117C520.302 56.9055 517.659 50.573 512.961 45.9224L511.338 44.3159C495.685 28.8202 469.083 39.8937 469.083 61.9052V437.623C469.083 459.739 495.9 470.765 511.491 455.06L513.114 453.425ZM980.166 122.875C1015.42 158.1 1033.29 200.913 1033.27 250.119C1033.27 299.308 1015.44 342.344 980.241 378.013C944.816 412.867 901.973 430.449 852.718 430.449C803.513 430.449 760.457 412.898 724.734 378.261C689.742 342.263 672.153 299.26 672.153 250.119C672.153 200.945 689.758 158.162 724.486 122.952C760.361 87.6353 803.449 69.8061 852.718 69.8061C902.031 69.8061 944.911 87.6636 980.166 122.875ZM969.22 367.173C1001.61 334.345 1017.81 295.347 1017.81 250.133C1017.81 204.95 1001.61 166.186 969.222 133.821C936.831 101.456 897.996 85.2827 852.744 85.2827C807.492 85.2827 768.419 101.456 735.551 133.821C703.625 166.17 687.66 204.932 687.66 250.133C687.66 295.333 703.624 334.349 735.551 367.173C768.422 399.059 807.471 415.002 852.744 415.002C897.986 415.002 936.82 399.06 969.22 367.173ZM1027.81 75.2722C1076.88 123.812 1101.42 182.11 1101.43 250.129C1101.43 319.125 1076.89 377.423 1027.83 424.986C979.69 473.526 921.347 497.79 852.743 497.79C784.139 497.79 725.765 473.512 677.658 424.986C629.055 376.928 604.761 318.644 604.761 250.129C604.761 182.092 629.053 123.812 677.658 75.2722C725.299 26.7322 783.657 2.46948 852.743 2.46948C921.332 2.46948 979.691 26.7464 1027.81 75.2722ZM1016.83 414.1C1063.4 368.932 1085.95 315.372 1085.96 250.133C1085.96 185.807 1063.39 132.208 1016.94 86.2715C971.31 40.2541 917.643 17.9407 852.758 17.9407C787.389 17.9407 733.738 40.2382 688.727 86.1017C642.618 132.151 620.259 185.778 620.259 250.133C620.259 314.954 642.602 368.546 688.571 413.994C734.184 459.997 787.853 482.312 852.758 482.312C917.632 482.312 971.31 459.996 1016.83 414.1ZM1453.83 154.514C1466.93 184.498 1473.48 216.365 1473.48 250.122C1473.48 283.925 1466.93 315.793 1453.83 345.759C1440.73 375.742 1422.97 402.045 1400.6 424.633C1378.18 447.24 1351.87 465.07 1321.62 478.151C1291.37 491.249 1259.33 497.79 1225.51 497.79H1119.94C1097.89 497.79 1086.81 471.22 1102.33 455.587L1135.34 422.332C1140 417.641 1146.34 415.002 1152.95 415.002H1225.51C1248.37 415.002 1269.81 410.719 1289.82 402.153C1309.82 393.587 1327.33 381.695 1342.35 366.464C1357.35 351.248 1369.14 333.636 1377.71 313.657C1386.29 293.663 1390.58 272.51 1390.58 250.134C1390.58 227.791 1386.29 206.606 1377.71 186.628C1369.14 166.649 1357.21 149.037 1341.98 133.821C1326.73 118.59 1309.11 106.699 1289.1 98.1324C1269.1 89.5502 1247.89 85.2827 1225.51 85.2827H1152.95C1146.34 85.2827 1140 82.6442 1135.34 77.9536L1102.33 44.699C1086.81 29.0669 1097.89 2.49606 1119.94 2.49606H1225.51C1259.33 2.49606 1291.25 9.05208 1321.26 22.1172C1351.28 35.2145 1377.59 53.0578 1400.22 75.649C1422.84 98.2562 1440.72 124.55 1453.83 154.514ZM1439.66 339.589C1451.83 311.724 1458.01 281.634 1458.01 250.15C1458.01 218.667 1451.83 188.561 1439.66 160.698C1427.4 132.664 1410.46 107.738 1389.29 86.5865C1368.11 65.4634 1343.15 48.5469 1315.08 36.3004C1287.17 24.1308 1257.02 17.9602 1225.53 17.9602H1157.09C1135.05 17.9602 1123.97 44.5295 1139.48 60.1621L1141.8 62.4937C1146.45 67.1849 1152.79 69.8239 1159.41 69.8239H1225.53C1249.96 69.8239 1273.4 74.571 1295.24 83.9266C1316.93 93.2044 1336.34 106.318 1352.94 122.879C1369.52 139.44 1382.64 158.845 1391.96 180.539C1401.33 202.374 1406.08 225.784 1406.08 250.139C1406.08 274.494 1401.33 297.904 1391.96 319.754C1382.65 341.418 1369.68 360.794 1353.39 377.323C1337.05 393.899 1317.72 407.043 1295.93 416.367C1274.07 425.723 1250.38 430.47 1225.53 430.47H1159.41C1152.79 430.47 1146.45 433.109 1141.8 437.8L1139.48 440.133C1123.96 455.766 1135.05 482.335 1157.09 482.335H1225.53C1257.05 482.335 1287.32 476.164 1315.47 463.979C1343.76 451.748 1368.7 434.862 1389.61 413.769C1410.53 392.646 1427.37 367.685 1439.66 339.589ZM1494.63 496.561C1472.59 496.561 1461.5 469.994 1477.01 454.361L1510.02 421.101C1514.68 416.409 1521.02 413.77 1527.64 413.77H1740.48C1754.17 413.77 1765.27 424.858 1765.27 438.536V471.795C1765.27 485.473 1754.17 496.561 1740.48 496.561H1494.63ZM1749.81 454.015C1749.81 440.337 1738.7 429.249 1725.01 429.249H1533.1C1526.86 429.249 1520.84 431.604 1516.26 435.842L1513.73 438.175C1497.18 453.479 1508.03 481.114 1530.58 481.114H1725.01C1738.7 481.114 1749.81 470.026 1749.81 456.348V454.015ZM1477.02 43.4654C1461.5 27.8331 1472.59 1.26286 1494.63 1.26286H1740.49C1754.19 1.26286 1765.29 12.351 1765.29 26.0289V59.2871C1765.29 72.965 1754.19 84.0531 1740.49 84.0531H1527.65C1521.03 84.0531 1514.69 81.4144 1510.04 76.7236L1477.02 43.4654ZM1725.01 68.5889C1738.7 68.5889 1749.81 57.5008 1749.81 43.8229V41.4913C1749.81 27.8134 1738.7 16.7252 1725.01 16.7252H1531.79C1509.75 16.7252 1498.66 43.2946 1514.18 58.9272L1516.49 61.2588C1521.15 65.95 1527.49 68.5889 1534.1 68.5889H1725.01ZM1567.78 290.309C1554.08 290.309 1542.98 279.221 1542.98 265.543V232.996C1542.98 219.318 1554.08 208.23 1567.78 208.23H1740.47C1754.17 208.23 1765.27 219.318 1765.27 232.996V265.543C1765.27 279.221 1754.17 290.309 1740.47 290.309H1567.78ZM1583.26 223.69C1569.56 223.69 1558.46 234.778 1558.46 248.456V250.077C1558.46 263.755 1569.56 274.843 1583.26 274.843H1724.99C1738.69 274.843 1749.79 263.755 1749.79 250.077V248.456C1749.79 234.778 1738.69 223.69 1724.99 223.69H1583.26Z" fill="black"/>
<path d="M344.571 339.578C356.741 311.713 362.918 281.624 362.918 250.14C362.918 218.656 356.74 188.55 344.571 160.688C332.309 132.653 315.371 107.727 294.204 86.5758C273.023 65.4528 248.065 48.5362 219.996 36.2898C192.079 24.1201 161.934 17.9495 130.442 17.9495H62.0062C39.9653 17.9495 28.8778 44.5189 44.3951 60.1515L46.7096 62.4831C51.3662 67.1743 57.7063 69.8132 64.3206 69.8132H130.442C154.874 69.8132 178.315 74.5604 200.147 83.916C221.84 93.1938 241.256 106.307 257.853 122.868C274.435 139.429 287.55 158.834 296.87 180.529C306.238 202.363 310.991 225.773 310.991 250.128C310.991 274.483 306.238 297.893 296.87 319.743C287.564 341.408 274.589 360.783 258.301 377.312C241.966 393.888 222.628 407.032 200.842 416.356C178.979 425.712 155.29 430.459 130.44 430.459H64.319C57.7047 430.459 51.3644 433.098 46.7077 437.789L44.392 440.122C28.875 455.755 39.9625 482.324 62.0033 482.324H130.44C161.965 482.324 192.233 476.153 220.384 463.968C248.672 451.737 273.615 434.851 294.521 413.758C315.44 392.635 332.277 367.674 344.571 339.578Z" fill="black"/>
<path d="M520.302 435.988V63.5117C520.302 56.9055 517.659 50.573 512.961 45.9224L511.338 44.3159C495.685 28.8202 469.083 39.8937 469.083 61.9052V437.623C469.083 459.739 495.9 470.765 511.491 455.06L513.114 453.425C517.719 448.787 520.302 442.52 520.302 435.988Z" fill="black"/>
<path fill-rule="evenodd" clip-rule="evenodd" d="M1016.83 414.1C1063.4 368.932 1085.95 315.372 1085.96 250.133C1085.96 185.807 1063.39 132.208 1016.94 86.2715C971.31 40.2541 917.643 17.9407 852.758 17.9407C787.389 17.9407 733.738 40.2382 688.727 86.1017C642.618 132.151 620.259 185.778 620.259 250.133C620.259 314.954 642.602 368.546 688.571 413.994C734.184 459.997 787.853 482.312 852.758 482.312C917.632 482.312 971.31 459.996 1016.83 414.1ZM1033.27 250.119C1033.29 200.913 1015.42 158.1 980.166 122.875C944.911 87.6636 902.031 69.8061 852.718 69.8061C803.449 69.8061 760.361 87.6353 724.486 122.952C689.758 158.162 672.153 200.945 672.153 250.119C672.153 299.26 689.742 342.263 724.734 378.261C760.457 412.898 803.513 430.449 852.718 430.449C901.973 430.449 944.816 412.867 980.241 378.013C1015.44 342.344 1033.27 299.308 1033.27 250.119Z" fill="black"/>
<path d="M1439.66 339.589C1451.83 311.724 1458.01 281.634 1458.01 250.15C1458.01 218.667 1451.83 188.561 1439.66 160.698C1427.4 132.664 1410.46 107.738 1389.29 86.5865C1368.11 65.4634 1343.15 48.5469 1315.08 36.3004C1287.17 24.1308 1257.02 17.9602 1225.53 17.9602H1157.09C1135.05 17.9602 1123.97 44.5295 1139.48 60.1621L1141.8 62.4937C1146.45 67.1849 1152.79 69.8239 1159.41 69.8239H1225.53C1249.96 69.8239 1273.4 74.571 1295.24 83.9266C1316.93 93.2044 1336.34 106.318 1352.94 122.879C1369.52 139.44 1382.64 158.845 1391.96 180.539C1401.33 202.374 1406.08 225.784 1406.08 250.139C1406.08 274.494 1401.33 297.904 1391.96 319.754C1382.65 341.418 1369.68 360.794 1353.39 377.323C1337.05 393.899 1317.72 407.043 1295.93 416.367C1274.07 425.723 1250.38 430.47 1225.53 430.47H1159.41C1152.79 430.47 1146.45 433.109 1141.8 437.8L1139.48 440.133C1123.96 455.766 1135.05 482.335 1157.09 482.335H1225.53C1257.05 482.335 1287.32 476.164 1315.47 463.979C1343.76 451.748 1368.7 434.862 1389.61 413.769C1410.53 392.646 1427.37 367.685 1439.66 339.589Z" fill="black"/>
<path d="M1749.81 43.8229V41.4913C1749.81 27.8134 1738.7 16.7252 1725.01 16.7252H1531.79C1509.75 16.7252 1498.66 43.2946 1514.18 58.9272L1516.49 61.2588C1521.15 65.95 1527.49 68.5889 1534.1 68.5889H1725.01C1738.7 68.5889 1749.81 57.5008 1749.81 43.8229Z" fill="black"/>
<path d="M1558.46 248.456V250.077C1558.46 263.755 1569.56 274.843 1583.26 274.843H1724.99C1738.69 274.843 1749.79 263.755 1749.79 250.077V248.456C1749.79 234.778 1738.69 223.69 1724.99 223.69H1583.26C1569.56 223.69 1558.46 234.778 1558.46 248.456Z" fill="black"/>
<path d="M1725.01 429.249H1533.1C1526.86 429.249 1520.84 431.604 1516.26 435.842L1513.73 438.175C1497.18 453.479 1508.03 481.114 1530.58 481.114H1725.01C1738.7 481.114 1749.81 470.026 1749.81 456.348V454.015C1749.81 440.337 1738.7 429.249 1725.01 429.249Z" fill="black"/>
</svg>
